<svg width="780" height="224" viewBox="0 0 780 224" fill="none" xmlns="http://www.w3.org/2000/svg">
<path d="M509.207 104.304L511.902 102.347C510.883 101.261 509.79 99.9574 509.79 97.8565C509.79 96.2631 510.882 94.5243 512.266 93.8003C511.538 92.9309 510.373 92.1353 508.698 92.1353C506.514 92.1353 504.693 93.7287 504.693 95.8284C504.693 97.2764 505.64 98.5089 506.732 99.0879C506.732 101.116 507.678 102.926 509.207 104.304ZM494.79 90.0344L497.047 86.0498H493.697C493.697 86.7738 493.042 87.5705 492.24 87.5705C491.367 87.5705 490.785 86.9914 490.785 86.0498H487.799C487.799 86.9192 487.144 87.5705 486.344 87.5705C485.542 87.5705 484.887 86.9192 484.887 86.0498H481.537L483.504 89.8884C485.033 89.7441 486.489 89.6724 487.945 89.6724C490.639 89.6724 492.97 89.8168 494.79 90.0344ZM488.673 125.381C488.309 124.729 487.945 123.932 487.945 122.484C487.945 120.601 489.037 119.007 491.368 117.992C492.897 117.268 494.062 116.616 496.101 115.603C500.907 113.14 502.581 108.504 502.581 103.724C502.581 101.334 501.926 99.4499 501.125 97.8565C501.343 99.1607 501.562 100.248 501.562 101.551C501.562 106.549 499.815 110.243 495.227 112.488C492.315 113.936 490.858 114.516 489.11 115.386C486.636 116.689 485.251 118.356 485.251 120.384C485.251 122.918 486.561 124.802 488.673 125.381ZM485.833 124.44C485.033 123.642 484.159 122.194 484.159 120.311C484.159 117.921 485.76 115.893 488.6 114.444C491.077 113.285 492.532 112.705 494.716 111.692C499.305 109.447 500.687 105.608 500.687 101.48C500.687 97.4951 499.377 95.467 498.285 94.1628C499.085 95.6846 499.304 97.4951 499.304 99.0168C499.304 103.435 497.994 107.274 492.823 109.302C490.201 110.388 488.528 110.75 486.269 111.764C482.702 113.431 481.319 115.386 481.319 118.283C481.319 121.035 483.066 123.642 485.833 124.44ZM483.066 123.86C481.828 122.846 480.226 121.181 480.226 118.21C480.226 115.096 481.537 112.778 485.615 111.04C488.237 109.954 489.62 109.446 492.096 108.504C497.339 106.549 498.431 102.709 498.431 98.9425C498.431 95.3221 497.12 93.2201 495.518 91.8449C496.465 93.0036 497.047 94.9601 497.047 96.9871C497.047 101.767 495.226 104.448 490.057 106.259C487.945 106.911 485.688 107.562 483.357 108.432C479.134 110.025 476.95 112.343 476.95 116.255C476.95 120.311 480.081 123.354 483.066 123.86ZM480.154 123.354C477.242 121.905 475.857 118.79 475.857 116.037C475.857 112.053 478.333 109.228 482.484 107.706C485.034 106.765 487.072 106.187 489.62 105.317C494.572 103.578 496.174 101.261 496.174 96.8427C496.174 94.3072 495.227 92.1353 493.698 90.9038C494.208 91.4829 494.353 92.2069 494.353 92.8592C494.353 94.0906 493.698 94.6697 492.751 94.6697C492.168 94.6697 491.586 94.3077 491.513 93.7287C491.804 93.9446 492.023 94.0179 492.315 94.0179C493.115 94.0179 493.553 93.4377 493.553 92.641C493.553 91.4096 492.387 90.7573 491.222 90.6129C490.203 90.4675 489.11 90.4675 487.873 90.4675C486.635 90.4675 485.47 90.5402 483.94 90.6129C484.887 91.9171 488.018 91.5551 488.965 92.2063C488.163 92.1347 487.363 92.1347 486.561 92.3507C486.561 92.8592 486.344 93.4377 485.834 93.4377C484.887 93.4377 484.45 92.424 483.796 90.6129L480.081 90.9033C479.499 90.9749 479.28 91.1926 479.353 91.6273L479.718 95.2488C479.718 95.3931 479.863 95.4653 480.009 95.4653C480.154 95.4653 480.299 95.3926 480.373 95.175C480.518 94.8857 480.956 94.2339 482.047 94.2339C483.649 94.2339 484.887 95.683 484.959 97.348C484.377 96.5524 483.067 95.8273 480.882 95.8273C479.207 95.8273 477.824 96.3347 475.64 96.3347C473.309 96.3347 471.999 95.4653 471.999 94.3794C471.999 93.8719 472.071 93.5816 472.362 93.2196C471.416 93.6543 470.688 94.4521 470.688 95.7551C470.688 97.3485 471.853 99.0158 475.275 99.0158C478.406 99.0158 479.863 97.0593 482.703 97.0593C484.013 97.0593 484.669 97.7105 484.669 98.4361C484.669 99.0874 484.085 99.6675 483.067 99.6675C481.829 99.6675 480.956 99.0163 480.518 98.3634C480.445 98.218 480.373 98.1469 480.227 98.1469C480.009 98.1469 479.936 98.2912 479.936 98.4361L480.009 101.912C480.009 102.347 480.227 102.565 480.737 102.492C482.922 102.275 485.179 101.985 487.291 101.841C491.222 101.479 493.918 98.8698 493.918 95.9739C493.918 95.5391 493.918 95.1761 493.844 94.7424C494.208 95.3226 494.354 95.9011 494.354 96.6251C494.354 99.3056 492.898 101.334 488.238 102.565C485.761 103.216 483.941 103.506 481.829 104.013C476.222 105.317 472.582 109.59 472.582 114.372C472.581 118.791 475.712 122.774 480.154 123.354ZM455.76 97.2047C456.051 96.5535 456.124 95.9733 456.124 95.5386C456.124 94.5964 455.687 93.7281 455.25 93.3661C456.342 93.3661 457.289 94.1617 457.289 95.2488C457.289 96.2631 456.634 96.9155 455.76 97.2047ZM469.159 114.443L471.488 113.212C472.289 108.36 475.202 104.955 480.298 103.724C477.605 103.868 475.274 103.94 471.998 104.086C468.503 104.23 462.751 104.666 458.745 104.955C457.944 105.028 457.435 104.738 457.216 104.086C456.998 103.362 456.561 101.985 456.488 101.188C456.415 100.536 456.561 100.101 457.144 99.6675C458.308 98.8698 459.473 97.9287 459.473 95.9733C459.473 93.8725 457.653 92.4972 455.978 92.4972C455.395 92.4972 454.959 92.5689 454.595 92.7132C454.157 92.4251 453.721 92.2069 452.846 92.2069C451.608 92.2069 450.517 93.0036 450.225 93.6548C448.113 93.5105 446.439 95.0317 446.584 97.0598C446.875 96.7695 447.458 96.4807 448.113 96.4807C448.914 96.4807 449.643 97.0598 449.643 97.9287C449.643 98.7254 449.496 99.7397 449.496 100.825C449.496 104.158 452.191 105.897 452.191 107.635C452.191 108.504 451.535 109.228 450.661 109.228C451.171 111.039 452.846 111.981 455.103 111.981C456.56 111.981 457.87 111.836 459.982 111.836C466.027 111.837 468.648 112.488 469.159 114.443ZM491.586 134.943H492.315C492.24 132.624 491.659 131.031 490.713 129.366C490.202 128.424 489.547 127.41 489.037 126.757C488.746 126.323 488.382 126.179 487.945 126.179C487.654 126.179 487.435 126.395 487.654 126.757C488.237 127.699 489.038 129.148 490.057 131.393C489.183 131.539 488.965 131.974 488.965 132.698C488.965 133.855 490.057 134.943 491.586 134.943ZM452.92 97.4945C452.993 95.4664 452.12 94.3804 450.882 93.873C451.099 93.8003 451.391 93.6554 451.828 93.6554C452.775 93.6554 453.794 94.4532 453.794 95.6846C453.794 96.3358 453.575 97.0598 452.92 97.4945ZM499.595 148.487C499.305 147.835 498.358 147.184 497.193 147.184C496.537 147.184 496.101 147.328 495.809 147.473C495.882 146.893 496.464 146.242 497.63 146.242C499.013 146.242 499.741 147.328 499.595 148.487ZM499.158 151.602C498.721 151.094 497.994 150.66 497.047 150.66C495.882 150.66 495.299 151.167 495.008 151.529C494.862 150.66 495.591 149.574 496.974 149.574C498.431 149.574 499.158 150.588 499.158 151.602ZM447.387 117.051C447.896 115.819 449.061 114.951 450.444 114.662C450.735 114.226 451.099 113.865 451.464 113.575L448.988 103.289C448.697 102.566 448.478 101.842 448.478 100.826C448.478 99.7408 448.696 98.6532 448.696 98.0747C448.696 97.5673 448.405 97.4234 448.113 97.4234C447.895 97.4234 447.75 97.4234 447.677 97.4951V97.7854C447.677 99.4505 446.657 100.755 444.982 100.755C443.308 100.755 441.996 99.3788 441.996 97.7854C441.996 96.192 443.308 94.8868 444.982 94.8868C445.274 94.8868 445.638 94.8868 446.074 95.0322C446.584 93.7292 448.186 92.5694 449.86 92.7876C448.696 91.3386 446.948 90.4691 444.982 90.4691C440.758 90.4691 437.41 93.5116 437.41 97.786C437.41 101.768 440.686 104.956 444.764 105.029L447.387 117.051ZM458.673 132.624C459.765 132.624 460.93 132.044 462.022 130.959C463.988 129.075 466.755 126.25 468.431 125.163C469.886 124.221 470.833 123.859 471.78 123.859C472.362 123.859 472.8 124.005 473.236 124.44L475.712 122.556C472.872 120.455 471.562 117.703 471.488 114.299C467.557 116.399 464.717 119.297 461.44 122.048C460.857 122.484 460.566 122.7 460.056 122.7C459.546 122.7 459.109 122.193 458.235 121.324C457.507 120.6 457.361 120.165 457.361 119.659C457.361 118.789 457.652 118.499 457.652 117.34C457.652 115.023 455.832 113.719 454.085 113.719C452.628 113.719 451.536 114.516 451.172 115.53C449.206 115.674 447.967 117.123 447.967 118.643C447.967 119.006 448.041 119.296 448.114 119.512C447.386 119.948 446.657 120.817 446.657 121.976C446.657 123.208 447.313 124.366 448.406 124.728C448.259 124.511 448.187 124.221 448.187 123.859C448.187 123.208 448.77 122.628 449.571 122.628C450.227 122.628 450.663 122.845 451.173 123.424C451.828 124.294 452.484 125.09 453.575 126.033C454.596 126.902 455.76 127.48 456.853 128.133C457.508 128.567 458.017 129.147 458.017 130.016C458.017 130.596 457.581 131.247 456.707 131.465C457.07 132.262 457.799 132.624 458.673 132.624ZM454.522 118.5C454.449 117.051 453.358 115.892 451.973 115.603C452.192 115.457 452.556 115.241 453.138 115.241C454.158 115.241 454.959 116.11 454.959 117.051C454.96 117.776 454.741 118.138 454.522 118.5ZM462.604 156.599C462.314 156.237 462.168 155.875 462.168 155.44C462.168 154.572 462.896 153.92 463.915 153.92C465.517 153.92 466.391 155.659 468.503 155.659C470.907 155.659 472.071 153.92 474.255 153.92C475.348 153.92 476.878 154.572 476.878 155.948C476.878 156.166 476.804 156.383 476.659 156.528C479.135 156.528 480.882 154.427 480.882 150.95C480.882 146.097 480.737 144.142 480.665 141.462C482.558 141.389 484.377 140.448 484.086 137.478C483.577 137.912 482.995 138.13 482.339 138.13C481.465 138.13 480.81 137.478 480.81 136.536C480.81 136.1 480.81 135.594 480.882 135.087L489.402 134.87C488.601 134.436 488.019 133.566 488.019 132.553C488.019 131.829 488.31 131.322 488.893 131.031C488.091 129.366 487.436 128.062 486.636 126.831C486.198 126.18 485.689 125.527 484.669 125.527C482.412 125.454 477.825 126.106 475.495 126.904C473.748 127.483 472.072 128.786 472.072 131.755C472.072 134.509 473.019 139.362 472.946 146.967C472.946 148.054 472.655 148.416 471.999 148.56C471.416 148.705 469.887 148.849 468.941 148.705C468.432 148.632 467.994 148.271 467.703 147.185C467.339 145.663 466.247 144.142 464.063 144.142C462.096 144.142 460.349 145.591 460.64 147.764C459.693 148.344 459.256 149.286 459.256 150.154C459.256 151.023 459.547 151.747 459.911 152.182C459.693 152.689 459.621 152.979 459.621 153.486C459.62 155.296 461.222 156.599 462.604 156.599ZM452.337 120.455C451.901 119.586 450.954 119.079 449.862 119.079C449.425 119.079 449.061 119.152 448.77 119.224C448.915 118.643 449.571 118.138 450.518 118.138C451.756 118.138 452.556 119.08 452.337 120.455ZM465.081 148.487C464.789 147.835 463.843 147.184 462.677 147.184C462.022 147.184 461.586 147.328 461.294 147.473C461.366 146.893 461.949 146.242 463.114 146.242C464.498 146.242 465.226 147.328 465.081 148.487ZM458.891 154.789C458.673 154.355 458.6 153.92 458.6 153.485C458.6 153.05 458.674 152.688 458.819 152.326C458.455 151.674 458.236 150.95 458.236 150.153C458.236 149.067 458.746 148.053 459.474 147.401L454.96 127.916C454.231 127.554 453.503 127.12 452.92 126.612C451.901 125.743 451.318 125.091 450.371 124.005C450.08 123.716 449.861 123.57 449.571 123.57C449.133 123.57 448.842 123.859 448.988 124.44L449.935 128.93L451.9 130.306L457.362 153.629L458.891 154.789ZM464.644 151.602C464.206 151.094 463.479 150.66 462.532 150.66C461.366 150.66 460.784 151.167 460.492 151.529C460.347 150.66 461.076 149.574 462.459 149.574C463.915 149.574 464.644 150.588 464.644 151.602ZM428.672 157.034L433.114 153.629L438.576 130.306L440.542 128.93L444.911 110.243L443.964 105.897C442.871 105.68 441.925 105.39 441.124 104.955L428.672 157.034ZM497.12 156.599C496.829 156.237 496.683 155.875 496.683 155.44C496.683 154.572 497.411 153.92 498.431 153.92C500.033 153.92 500.907 155.659 503.019 155.659C505.421 155.659 506.586 153.92 508.771 153.92C509.864 153.92 511.392 154.572 511.392 155.948C511.392 156.166 511.319 156.383 511.174 156.528C513.65 156.528 515.397 154.427 515.397 150.95C515.397 146.315 514.96 141.173 514.45 136.029C515.761 135.74 516.999 134.436 516.999 132.77C516.999 132.191 516.781 131.538 516.416 130.959C516.052 131.467 515.397 131.9 514.305 132.191C512.776 132.624 510.882 132.842 509.499 132.842C506.367 132.842 505.348 132.624 503.893 132.191C503.819 130.235 502.581 128.641 501.417 127.554C503.236 128.278 504.038 128.64 506.95 128.64C516.271 128.64 522.023 122.412 522.023 115.313C522.023 110.169 518.747 107.78 515.76 106.041L512.994 107.997C516.344 109.517 518.528 111.762 518.528 114.805C518.528 118.138 515.834 120.529 512.703 120.529C509.352 120.529 506.732 118.138 506.732 114.878C506.732 112.416 507.896 110.605 510.081 108.866C512.266 107.128 515.615 105.027 517.436 103.072C518.383 102.057 519.183 100.463 519.11 99.2317C520.349 98.6527 521.295 97.4224 521.295 95.8279C521.295 93.7281 519.257 92.1347 517.072 92.1347C515.76 92.1347 514.305 92.9303 513.576 93.7997C514.888 94.3072 516.126 96.0444 516.126 97.856C516.126 99.3777 515.179 100.681 514.086 101.767C512.412 103.434 510.227 104.665 507.824 106.621C504.912 109.011 503.163 111.836 503.163 115.023C503.163 119.441 506.586 123.57 511.974 123.57C513.722 123.57 515.105 123.208 516.125 122.556C514.377 124.584 511.101 125.598 507.678 125.598C504.692 125.598 502.654 125.163 500.47 123.57C498.503 122.122 496.975 118.717 497.047 116.182C495.445 117.124 493.553 117.992 491.951 118.717C489.692 119.803 488.964 120.962 488.964 122.918C488.964 125.526 490.785 127.554 491.586 129.075C492.678 131.03 493.042 132.769 493.188 134.579C493.625 138.998 496.174 141.027 500.688 141.027C502.727 141.027 505.421 140.881 506.514 140.736C506.951 142.765 507.461 145.154 507.461 146.966C507.461 148.053 507.169 148.415 506.514 148.559C505.931 148.705 504.402 148.849 503.456 148.705C502.947 148.631 502.509 148.27 502.218 147.184C501.854 145.662 500.762 144.142 498.577 144.142C496.611 144.142 494.864 145.591 495.155 147.763C494.208 148.343 493.77 149.285 493.77 150.153C493.77 151.023 494.062 151.747 494.425 152.182C494.208 152.689 494.134 152.978 494.134 153.486C494.134 155.296 495.737 156.599 497.12 156.599Z" fill="black"/>
<path d="M529.06 163.484H423.955V58.9336H529.06V163.484ZM424.966 162.479H528.049V59.9392H424.966V162.479Z" fill="black"/>
<path d="M509.143 104.272L511.836 102.317C510.818 101.232 509.726 99.9285 509.726 97.8293C509.726 96.237 510.818 94.4992 512.199 93.7758C511.472 92.9069 510.307 92.1118 508.634 92.1118C506.451 92.1118 504.631 93.7041 504.631 95.8022C504.631 97.2491 505.578 98.4811 506.67 99.0596C506.67 101.086 507.617 102.895 509.143 104.272ZM494.738 90.0126L496.993 86.0308H493.645C493.645 86.7542 492.99 87.5509 492.189 87.5509C491.317 87.5509 490.735 86.9718 490.735 86.0308H487.751C487.751 86.8996 487.097 87.5509 486.296 87.5509C485.496 87.5509 484.841 86.8996 484.841 86.0308H481.494L483.459 89.8666C484.987 89.7223 486.441 89.6512 487.897 89.6512C490.588 89.6512 492.918 89.795 494.738 90.0126ZM488.624 125.333C488.261 124.683 487.897 123.886 487.897 122.44C487.897 120.557 488.988 118.965 491.317 117.95C492.845 117.227 494.008 116.576 496.046 115.563C500.848 113.102 502.522 108.469 502.522 103.693C502.522 101.304 501.867 99.4216 501.068 97.8293C501.284 99.1318 501.503 100.218 501.503 101.521C501.503 106.515 499.757 110.207 495.173 112.45C492.263 113.897 490.806 114.477 489.059 115.346C486.587 116.648 485.204 118.314 485.204 120.341C485.204 122.872 486.513 124.756 488.624 125.333ZM485.787 124.394C484.987 123.597 484.115 122.15 484.115 120.268C484.115 117.879 485.714 115.853 488.552 114.404C491.025 113.246 492.481 112.667 494.663 111.654C499.249 109.411 500.63 105.574 500.63 101.449C500.63 97.4673 499.322 95.4403 498.229 94.1378C499.03 95.6584 499.249 97.4673 499.249 98.9885C499.249 103.403 497.94 107.239 492.772 109.265C490.152 110.351 488.479 110.713 486.224 111.726C482.657 113.392 481.275 115.346 481.275 118.24C481.275 120.991 483.022 123.597 485.787 124.394ZM483.022 123.814C481.784 122.802 480.182 121.137 480.182 118.168C480.182 115.057 481.493 112.74 485.567 111.003C488.188 109.918 489.57 109.41 492.045 108.469C497.283 106.515 498.375 102.678 498.375 98.9141C498.375 95.2964 497.065 93.1962 495.464 91.8215C496.41 92.9791 496.993 94.9345 496.993 96.9604C496.993 101.737 495.173 104.416 490.007 106.226C487.897 106.877 485.642 107.528 483.312 108.396C479.092 109.989 476.909 112.305 476.909 116.215C476.91 120.268 480.038 123.308 483.022 123.814ZM480.111 123.308C477.2 121.86 475.817 118.747 475.817 115.996C475.817 112.016 478.291 109.193 482.438 107.672C484.987 106.731 487.024 106.153 489.57 105.284C494.518 103.547 496.119 101.231 496.119 96.816C496.119 94.2827 495.173 92.1113 493.645 90.881C494.154 91.4595 494.3 92.1829 494.3 92.8353C494.3 94.0656 493.645 94.6441 492.699 94.6441C492.117 94.6441 491.534 94.2827 491.463 93.7036C491.753 93.9196 491.972 93.9929 492.264 93.9929C493.063 93.9929 493.5 93.4132 493.5 92.6171C493.5 91.3868 492.336 90.735 491.172 90.5906C490.153 90.4457 489.061 90.4457 487.825 90.4457C486.589 90.4457 485.424 90.5184 483.896 90.5906C484.842 91.8937 487.971 91.5322 488.916 92.1829C488.115 92.1113 487.315 92.1113 486.514 92.3267C486.514 92.8353 486.297 93.4132 485.787 93.4132C484.841 93.4132 484.404 92.4011 483.75 90.5906L480.039 90.881C479.456 90.9526 479.238 91.1702 479.311 91.6049L479.676 95.2237C479.676 95.3675 479.821 95.4403 479.968 95.4403C480.112 95.4403 480.257 95.3681 480.33 95.1499C480.477 94.8612 480.914 94.2099 482.004 94.2099C483.604 94.2099 484.842 95.6579 484.914 97.3218C484.332 96.5268 483.023 95.8022 480.839 95.8022C479.166 95.8022 477.784 96.3091 475.601 96.3091C473.273 96.3091 471.963 95.4403 471.963 94.3554C471.963 93.8485 472.035 93.5581 472.327 93.1962C471.38 93.6303 470.653 94.4276 470.653 95.7295C470.653 97.3218 471.818 98.988 475.236 98.988C478.365 98.988 479.822 97.0326 482.658 97.0326C483.968 97.0326 484.624 97.6833 484.624 98.4083C484.624 99.059 484.041 99.6387 483.023 99.6387C481.785 99.6387 480.914 98.988 480.477 98.3356C480.403 98.1902 480.33 98.1191 480.185 98.1191C479.968 98.1191 479.894 98.2629 479.894 98.4083L479.968 101.882C479.968 102.316 480.185 102.535 480.695 102.462C482.878 102.244 485.133 101.955 487.245 101.811C491.173 101.449 493.866 98.8414 493.866 95.9472C493.866 95.5124 493.866 95.1499 493.793 94.7168C494.156 95.2964 494.302 95.875 494.302 96.5984C494.302 99.2767 492.847 101.304 488.191 102.535C485.715 103.185 483.897 103.475 481.785 103.981C476.183 105.284 472.546 109.555 472.546 114.333C472.544 118.747 475.673 122.729 480.111 123.308ZM455.734 97.1786C456.026 96.5273 456.099 95.9482 456.099 95.5135C456.099 94.5725 455.662 93.7047 455.226 93.3432C456.317 93.3432 457.263 94.1383 457.263 95.2248C457.262 96.237 456.608 96.8888 455.734 97.1786ZM469.124 114.404L471.452 113.174C472.252 108.325 475.162 104.923 480.256 103.693C477.564 103.837 475.235 103.909 471.962 104.055C468.469 104.199 462.72 104.634 458.719 104.923C457.918 104.996 457.409 104.705 457.19 104.055C456.972 103.331 456.536 101.955 456.462 101.159C456.388 100.508 456.536 100.073 457.118 99.6398C458.281 98.8425 459.446 97.9025 459.446 95.9482C459.446 93.849 457.626 92.4744 455.953 92.4744C455.372 92.4744 454.935 92.5455 454.571 92.6904C454.133 92.4022 453.698 92.1846 452.824 92.1846C451.587 92.1846 450.496 92.9807 450.204 93.6314C448.095 93.4871 446.421 95.0072 446.566 97.0337C446.857 96.7433 447.439 96.4551 448.095 96.4551C448.894 96.4551 449.622 97.0337 449.622 97.9025C449.622 98.6987 449.476 99.7125 449.476 100.797C449.476 104.127 452.169 105.865 452.169 107.601C452.169 108.47 451.513 109.194 450.64 109.194C451.149 111.004 452.823 111.944 455.078 111.944C456.534 111.944 457.844 111.8 459.954 111.8C465.996 111.799 468.613 112.45 469.124 114.404ZM491.534 134.889H492.263C492.189 132.572 491.608 130.98 490.663 129.316C490.152 128.374 489.497 127.362 488.988 126.708C488.697 126.275 488.332 126.13 487.897 126.13C487.606 126.13 487.388 126.347 487.606 126.708C488.19 127.65 488.989 129.098 490.008 131.341C489.135 131.486 488.916 131.921 488.916 132.645C488.915 133.803 490.007 134.889 491.534 134.889ZM452.898 97.4673C452.969 95.4403 452.097 94.3554 450.86 93.8485C451.077 93.7758 451.368 93.6309 451.805 93.6309C452.752 93.6309 453.771 94.4281 453.771 95.6584C453.771 96.3091 453.552 97.0331 452.898 97.4673ZM499.539 148.423C499.248 147.773 498.302 147.121 497.138 147.121C496.482 147.121 496.047 147.266 495.755 147.41C495.827 146.83 496.41 146.179 497.574 146.179C498.957 146.179 499.683 147.266 499.539 148.423ZM499.102 151.536C498.666 151.029 497.939 150.595 496.993 150.595C495.828 150.595 495.247 151.102 494.955 151.463C494.81 150.595 495.538 149.509 496.921 149.509C498.375 149.509 499.102 150.523 499.102 151.536ZM447.367 117.01C447.876 115.779 449.04 114.911 450.423 114.622C450.712 114.187 451.077 113.826 451.442 113.536L448.968 103.257C448.677 102.535 448.458 101.811 448.458 100.797C448.458 99.7125 448.676 98.626 448.676 98.048C448.676 97.5406 448.385 97.3973 448.095 97.3973C447.876 97.3973 447.73 97.3973 447.658 97.4684V97.7587C447.658 99.4227 446.638 100.726 444.965 100.726C443.292 100.726 441.981 99.351 441.981 97.7587C441.981 96.1664 443.292 94.8623 444.965 94.8623C445.256 94.8623 445.62 94.8623 446.056 95.0072C446.566 93.7052 448.167 92.546 449.839 92.7636C448.676 91.3157 446.93 90.4468 444.965 90.4468C440.745 90.4468 437.398 93.4871 437.398 97.7582C437.398 101.738 440.673 104.924 444.747 104.996L447.367 117.01ZM458.646 132.572C459.737 132.572 460.901 131.992 461.993 130.908C463.957 129.026 466.723 126.203 468.396 125.116C469.851 124.176 470.797 123.814 471.743 123.814C472.325 123.814 472.763 123.959 473.198 124.394L475.672 122.512C472.834 120.412 471.525 117.662 471.451 114.26C467.523 116.359 464.684 119.255 461.409 122.004C460.827 122.44 460.536 122.655 460.027 122.655C459.517 122.655 459.081 122.149 458.207 121.28C457.48 120.557 457.334 120.122 457.334 119.616C457.334 118.747 457.626 118.457 457.626 117.3C457.626 114.984 455.807 113.681 454.06 113.681C452.605 113.681 451.513 114.477 451.149 115.491C449.184 115.635 447.947 117.083 447.947 118.602C447.947 118.965 448.021 119.254 448.094 119.471C447.367 119.906 446.637 120.774 446.637 121.933C446.637 123.163 447.292 124.321 448.384 124.683C448.238 124.466 448.166 124.176 448.166 123.814C448.166 123.163 448.748 122.583 449.549 122.583C450.203 122.583 450.64 122.802 451.15 123.379C451.805 124.248 452.46 125.044 453.551 125.986C454.57 126.855 455.734 127.433 456.826 128.085C457.481 128.519 457.989 129.099 457.989 129.967C457.989 130.547 457.554 131.197 456.68 131.414C457.044 132.21 457.772 132.572 458.646 132.572ZM454.498 118.457C454.425 117.01 453.334 115.853 451.951 115.563C452.169 115.417 452.533 115.201 453.115 115.201C454.133 115.201 454.934 116.069 454.934 117.01C454.935 117.734 454.716 118.096 454.498 118.457ZM462.575 156.53C462.283 156.168 462.138 155.807 462.138 155.372C462.138 154.504 462.866 153.853 463.884 153.853C465.485 153.853 466.358 155.589 468.469 155.589C470.87 155.589 472.034 153.853 474.217 153.853C475.309 153.853 476.838 154.504 476.838 155.879C476.838 156.097 476.763 156.314 476.619 156.459C479.093 156.459 480.838 154.36 480.838 150.884C480.838 146.035 480.694 144.081 480.621 141.403C482.514 141.331 484.331 140.39 484.04 137.423C483.531 137.856 482.95 138.074 482.295 138.074C481.422 138.074 480.766 137.423 480.766 136.482C480.766 136.045 480.766 135.539 480.838 135.033L489.352 134.816C488.552 134.382 487.97 133.515 487.97 132.501C487.97 131.778 488.262 131.271 488.844 130.981C488.042 129.317 487.388 128.014 486.588 126.783C486.151 126.132 485.642 125.48 484.622 125.48C482.366 125.407 477.783 126.059 475.453 126.856C473.708 127.435 472.033 128.737 472.033 131.704C472.033 134.455 472.979 139.305 472.906 146.905C472.906 147.991 472.615 148.353 471.961 148.497C471.378 148.643 469.851 148.786 468.904 148.643C468.396 148.569 467.958 148.208 467.667 147.123C467.303 145.602 466.212 144.082 464.029 144.082C462.063 144.082 460.319 145.53 460.609 147.701C459.663 148.281 459.226 149.221 459.226 150.089C459.226 150.958 459.517 151.682 459.881 152.116C459.663 152.623 459.591 152.912 459.591 153.419C459.592 155.228 461.193 156.53 462.575 156.53ZM452.314 120.411C451.878 119.543 450.932 119.037 449.84 119.037C449.404 119.037 449.041 119.109 448.749 119.182C448.895 118.601 449.55 118.096 450.496 118.096C451.733 118.096 452.533 119.037 452.314 120.411ZM465.049 148.423C464.758 147.773 463.812 147.121 462.648 147.121C461.993 147.121 461.556 147.266 461.265 147.41C461.337 146.83 461.921 146.179 463.085 146.179C464.466 146.179 465.193 147.266 465.049 148.423ZM458.863 154.72C458.646 154.287 458.573 153.853 458.573 153.418C458.573 152.984 458.646 152.622 458.791 152.261C458.428 151.609 458.208 150.883 458.208 150.088C458.208 149.002 458.719 147.99 459.446 147.337L454.934 127.868C454.206 127.507 453.479 127.072 452.897 126.565C451.878 125.696 451.296 125.045 450.35 123.959C450.058 123.67 449.839 123.525 449.549 123.525C449.112 123.525 448.821 123.814 448.968 124.394L449.913 128.881L451.878 130.257L457.335 153.562L458.863 154.72ZM464.614 151.536C464.175 151.029 463.448 150.595 462.502 150.595C461.337 150.595 460.756 151.102 460.464 151.463C460.32 150.595 461.048 149.509 462.43 149.509C463.884 149.509 464.614 150.523 464.614 151.536ZM428.666 156.965L433.105 153.562L438.562 130.256L440.526 128.88L444.893 110.206L443.947 105.864C442.855 105.646 441.909 105.357 441.109 104.922L428.666 156.965ZM497.065 156.53C496.774 156.168 496.628 155.807 496.628 155.372C496.628 154.504 497.355 153.853 498.375 153.853C499.976 153.853 500.849 155.589 502.96 155.589C505.36 155.589 506.525 153.853 508.707 153.853C509.8 153.853 511.327 154.504 511.327 155.879C511.327 156.097 511.254 156.314 511.11 156.459C513.583 156.459 515.329 154.36 515.329 150.884C515.329 146.253 514.893 141.115 514.383 135.975C515.693 135.685 516.93 134.382 516.93 132.718C516.93 132.139 516.713 131.486 516.348 130.908C515.983 131.415 515.329 131.849 514.239 132.139C512.71 132.572 510.818 132.789 509.434 132.789C506.306 132.789 505.288 132.572 503.833 132.139C503.759 130.185 502.523 128.591 501.358 127.506C503.177 128.229 503.978 128.59 506.888 128.59C516.202 128.59 521.951 122.366 521.951 115.273C521.951 110.134 518.676 107.746 515.693 106.008L512.928 107.963C516.275 109.482 518.458 111.726 518.458 114.766C518.458 118.096 515.767 120.485 512.638 120.485C509.29 120.485 506.671 118.096 506.671 114.838C506.671 112.378 507.835 110.568 510.017 108.831C512.201 107.095 515.548 104.995 517.368 103.041C518.314 102.027 519.113 100.434 519.04 99.2034C520.277 98.6249 521.224 97.3956 521.224 95.8022C521.224 93.7041 519.187 92.1118 517.004 92.1118C515.693 92.1118 514.239 92.9069 513.51 93.7758C514.821 94.2827 516.058 96.0193 516.058 97.8293C516.058 99.3499 515.112 100.652 514.02 101.737C512.347 103.403 510.164 104.634 507.761 106.588C504.851 108.977 503.104 111.8 503.104 114.984C503.104 119.399 506.525 123.525 511.908 123.525C513.655 123.525 515.039 123.163 516.058 122.511C514.311 124.537 511.038 125.552 507.617 125.552C504.632 125.552 502.596 125.116 500.414 123.525C498.448 122.078 496.921 118.675 496.993 116.142C495.392 117.083 493.5 117.951 491.899 118.675C489.643 119.761 488.915 120.919 488.915 122.873C488.915 125.48 490.735 127.507 491.534 129.026C492.626 130.98 492.99 132.718 493.135 134.526C493.572 138.943 496.119 140.969 500.629 140.969C502.668 140.969 505.359 140.824 506.451 140.679C506.887 142.706 507.397 145.093 507.397 146.904C507.397 147.99 507.105 148.353 506.451 148.496C505.869 148.642 504.341 148.785 503.395 148.642C502.887 148.568 502.449 148.207 502.157 147.122C501.794 145.602 500.703 144.081 498.52 144.081C496.554 144.081 494.809 145.53 495.099 147.701C494.153 148.28 493.717 149.221 493.717 150.088C493.717 150.957 494.007 151.681 494.372 152.115C494.153 152.622 494.08 152.912 494.08 153.418C494.081 155.228 495.683 156.53 497.065 156.53Z" fill="black"/>
<path d="M709.332 163.487H719.703V160.077H713.667V157.657H719.506V154.336H713.667V151.938H719.703V148.529H709.332V163.487ZM698.541 163.838C702.08 163.838 705.02 162.144 705.02 157.964V148.528H700.686V157.568C700.686 159.262 699.758 160.009 698.541 160.009C697.326 160.009 696.398 159.262 696.398 157.568V148.528H692.063V157.964C692.063 162.144 695.004 163.838 698.541 163.838ZM682.975 163.838C685.65 163.838 687.507 163.024 688.414 162.561V155.942H684.191V159.988C683.881 160.054 683.55 160.097 683.217 160.097C681.536 160.097 679.679 158.823 679.679 156.006C679.679 152.971 681.315 151.476 684.123 151.476C685.672 151.476 686.997 152.004 687.817 152.444V148.924C686.932 148.528 685.472 147.979 683.483 147.979C678.375 147.979 674.947 151.124 674.947 156.006C674.948 160.89 678.772 163.838 682.975 163.838ZM664.024 157.326L665.504 151.805H665.704L667.186 157.326H664.024ZM668.843 163.487H673.29L668.778 148.529H662.432L657.942 163.487H662.387L663.206 160.385H668.004L668.843 163.487ZM648.456 155.435V151.717H650.203C651.376 151.717 652.062 152.619 652.062 153.566C652.062 154.512 651.376 155.435 650.203 155.435H648.456ZM644.122 163.487H648.456V158.229H649.562L652.171 163.487H657.058L654.296 158.867C654.008 158.382 653.654 157.943 653.455 157.811L653.477 157.722C654.803 157.129 656.683 156.006 656.683 153.456C656.683 150.772 654.538 148.528 651.024 148.528H644.122V163.487H644.122ZM633 155.435V151.74H634.703C635.653 151.74 636.516 152.531 636.516 153.587C636.516 154.665 635.653 155.435 634.703 155.435H633ZM628.666 163.487H633V158.647H635.212C638.728 158.647 640.916 156.426 640.916 153.675C640.916 150.926 638.728 148.528 635.212 148.528H628.666V163.487ZM604.453 163.487H608.788V154.512H608.853L613.41 163.487H618.693V148.529H614.36V157.459H614.293L609.783 148.529H604.453V163.487ZM595.697 163.487H600.031V148.529H595.697V163.487ZM579.356 163.838C582.894 163.838 585.834 162.144 585.834 157.964V148.528H581.499V157.568C581.499 159.262 580.572 160.009 579.356 160.009C578.14 160.009 577.211 159.262 577.211 157.568V148.528H572.877V157.964C572.877 162.144 575.818 163.838 579.356 163.838ZM562.087 163.487H566.42V152.025H570.157V148.528H558.327V152.025H562.086V163.487H562.087ZM552.224 163.728C554.014 163.728 555.518 163.265 556.425 162.804V159.043C555.563 159.505 554.568 159.9 552.997 159.9C551.427 159.9 549.15 158.713 549.15 156.006C549.15 153.302 551.23 152.025 553.242 152.025C554.613 152.025 555.563 152.333 556.403 152.752V149.034C555.518 148.639 554.414 148.331 552.643 148.331C548.199 148.331 544.419 151.235 544.419 156.006C544.419 160.779 547.803 163.728 552.224 163.728Z" fill="black"/>
<path d="M701.348 141.44C704.023 141.44 705.881 140.626 706.787 140.165V133.543H702.563V137.591C702.255 137.657 701.922 137.7 701.59 137.7C699.909 137.7 698.053 136.424 698.053 133.61C698.053 130.573 699.688 129.079 702.497 129.079C704.045 129.079 705.372 129.607 706.19 130.046V126.528C705.305 126.129 703.847 125.581 701.857 125.581C696.748 125.581 693.319 128.726 693.319 133.61C693.32 138.492 697.146 141.44 701.348 141.44ZM675.542 141.088H679.877V132.114H679.943L684.499 141.088H689.784V126.129H685.449V135.062H685.383L680.872 126.129H675.542V141.088ZM666.787 141.088H671.119V126.129H666.787V141.088ZM655.046 133.036V129.32H656.793C657.964 129.32 658.65 130.221 658.65 131.168C658.65 132.114 657.964 133.036 656.793 133.036H655.046ZM650.711 141.088H655.046V135.831H656.151L658.76 141.088H663.646L660.883 136.469C660.595 135.984 660.242 135.545 660.044 135.412L660.065 135.325C661.391 134.73 663.271 133.609 663.271 131.057C663.271 128.374 661.128 126.128 657.61 126.128H650.712V141.088H650.711ZM636.383 141.088H646.753V137.678H640.717V135.259H646.554V131.938H640.717V129.539H646.753V126.129H636.383V141.088ZM622.052 141.088H632.425V137.678H626.387V135.259H632.225V131.938H626.387V129.539H632.425V126.129H622.052V141.088ZM603.391 141.088H607.725V132.114H607.791L612.347 141.088H617.63V126.129H613.298V135.062H613.231L608.72 126.129H603.391V141.088ZM594.635 141.088H598.968V126.129H594.635V141.088ZM585.436 141.44C588.111 141.44 589.97 140.626 590.877 140.165V133.543H586.65V137.591C586.341 137.657 586.012 137.7 585.678 137.7C583.999 137.7 582.14 136.424 582.14 133.61C582.14 130.573 583.777 129.079 586.585 129.079C588.132 129.079 589.459 129.607 590.277 130.046V126.528C589.392 126.129 587.934 125.581 585.943 125.581C580.835 125.581 577.409 128.726 577.409 133.61C577.41 138.492 581.234 141.44 585.436 141.44ZM559.631 141.088H563.965V132.114H564.031L568.586 141.088H573.871V126.129H569.537V135.062H569.471L564.959 126.129H559.63V141.088H559.631ZM545.302 141.088H555.673V137.678H549.636V135.259H555.475V131.938H549.636V129.539H555.673V126.129H545.302V141.088Z" fill="black"/>
<path d="M706.126 118.688H715.834V115.145H710.459V103.728H706.126V118.688ZM694.539 112.527L696.019 107.006H696.219L697.699 112.527H694.539ZM699.359 118.688H703.803L699.292 103.729H692.947L688.457 118.688H692.901L693.719 115.585H698.519L699.359 118.688ZM682.377 118.928C684.168 118.928 685.672 118.467 686.578 118.005V114.243C685.716 114.705 684.721 115.101 683.151 115.101C681.581 115.101 679.305 113.913 679.305 111.207C679.305 108.502 681.382 107.226 683.394 107.226C684.765 107.226 685.716 107.534 686.556 107.952V104.234C685.672 103.839 684.565 103.531 682.797 103.531C678.352 103.531 674.571 106.435 674.571 111.207C674.57 115.981 677.954 118.928 682.377 118.928ZM666.699 118.688H671.033V103.729H666.699V118.688ZM654.958 110.636V106.919H656.705C657.876 106.919 658.561 107.82 658.561 108.767C658.561 109.713 657.876 110.636 656.705 110.636H654.958ZM650.623 118.688H654.958V113.431H656.063L658.672 118.688H663.558L660.795 114.067C660.508 113.584 660.156 113.144 659.955 113.012L659.977 112.924C661.303 112.329 663.183 111.208 663.183 108.656C663.183 105.973 661.04 103.728 657.523 103.728H650.624V118.688H650.623ZM639.722 118.688H644.055V107.228H647.793V103.729H635.963V107.228H639.722V118.688H639.722ZM629.859 118.928C631.65 118.928 633.154 118.467 634.062 118.005V114.243C633.2 114.705 632.204 115.101 630.633 115.101C629.065 115.101 626.786 113.913 626.786 111.207C626.786 108.502 628.866 107.226 630.877 107.226C632.247 107.226 633.2 107.534 634.039 107.952V104.234C633.155 103.839 632.049 103.531 630.279 103.531C625.835 103.531 622.053 106.435 622.053 111.207C622.053 115.981 625.438 118.928 629.859 118.928ZM608.609 118.688H618.981V115.278H612.943V112.859H618.782V109.537H612.943V107.139H618.981V103.729H608.609V118.688ZM596.691 118.688H606.399V115.145H601.027V103.728H596.691V118.688ZM582.363 118.688H592.733V115.278H586.697V112.859H592.534V109.537H586.697V107.139H592.733V103.729H582.363V118.688ZM562.993 103.729V118.688H567.327V112.902H573.208V109.581H567.327V107.139H573.274V103.729H562.993ZM551.959 115.211C550.034 115.211 549.062 113.672 549.062 111.208C549.062 108.744 550.034 107.206 551.959 107.206C553.905 107.206 554.811 108.744 554.811 111.208C554.811 113.671 553.905 115.211 551.959 115.211ZM551.959 119.039C556.448 119.039 559.454 116.202 559.454 111.208C559.454 106.216 556.448 103.377 551.959 103.377C547.491 103.377 544.419 106.216 544.419 111.208C544.418 116.202 547.491 119.039 551.959 119.039Z" fill="black"/>
<path d="M633.045 96.2921H637.379V90.8142L642.574 81.3341H637.776L635.321 86.6797H635.234L632.868 81.3341H627.957L633.044 90.8142V96.2921H633.045ZM619.158 96.2921H623.493V84.8315H627.23V81.3341H615.399V84.8315H619.158V96.2921H619.158ZM605.978 96.2921H615.686V92.7499H610.313V81.3341H605.978V96.2921ZM595.187 96.6437C598.726 96.6437 601.667 94.9502 601.667 90.771V81.3341H597.333V90.3745C597.333 92.0685 596.404 92.8155 595.187 92.8155C593.973 92.8155 593.044 92.0685 593.044 90.3745V81.3341H588.709V90.7704C588.709 94.9502 591.651 96.6437 595.187 96.6437ZM581.345 96.5338C583.137 96.5338 584.641 96.0717 585.548 95.6108V91.8487C584.686 92.3108 583.691 92.7067 582.12 92.7067C580.55 92.7067 578.272 91.519 578.272 88.8128C578.272 86.1083 580.352 84.8315 582.362 84.8315C583.733 84.8315 584.686 85.1399 585.525 85.5571V81.8399C584.641 81.4451 583.536 81.1367 581.766 81.1367C577.321 81.1367 573.539 84.0408 573.539 88.8128C573.539 93.5859 576.924 96.5338 581.345 96.5338ZM562.616 90.1323L564.097 84.6111H564.296L565.78 90.1323H562.616ZM567.436 96.2921H571.881L567.369 81.3341H561.024L556.535 96.2921H560.979L561.798 93.1906H566.596L567.436 96.2921ZM545.302 81.3341V96.2921H549.636V90.5068H555.518V87.1855H549.636V84.7435H555.585V81.3341H545.302Z" fill="black"/>
<path d="M110.589 89.1784C105.765 84.3899 98.0915 84.1554 92.9889 88.4751C92.6908 88.7224 92.4013 88.985 92.1213 89.2629C91.9929 89.3904 91.8677 89.5199 91.7458 89.6513L62.8038 118.384C57.7321 123.419 57.732 131.582 62.8038 136.618C67.8756 141.653 76.0987 141.653 81.1705 136.618L91.0507 126.809H91.1553C93.7825 124.16 97.4364 122.518 101.477 122.518C106.25 122.518 109.934 125.148 113.123 128.346L121.494 136.657C126.566 141.692 134.789 141.692 139.861 136.657C141.047 135.479 141.961 134.129 142.592 132.689C144.711 127.093 149.098 122.655 155.266 122.655H156.876C163.158 122.655 167.851 127.232 169.523 133.03C171.14 137.24 175.221 140.433 180.029 140.433H183.534C189.756 140.433 194.824 135.223 194.824 129.046V93.2557C194.824 87.0787 189.78 82.0713 183.558 82.0713H180.053C174.126 82.0713 169.941 86.5841 169.494 92.3541C169.012 104.741 158.07 114.666 145.475 114.666C137.93 114.666 131.841 110.418 126.95 105.606L110.589 89.1784Z" fill="black"/>
<path d="M229.14 106.896C228.885 106.896 228.699 106.655 228.759 106.405L233.225 87.9092C233.268 87.7315 233.425 87.6064 233.606 87.6064H239.205C239.386 87.6064 239.543 87.7317 239.586 87.9097L244.028 106.405C244.088 106.655 243.901 106.896 243.647 106.896H240.435C240.251 106.896 240.092 106.767 240.052 106.586L239.202 102.74C239.162 102.559 239.003 102.43 238.82 102.43H233.978C233.795 102.43 233.637 102.558 233.596 102.739L232.735 106.587C232.694 106.768 232.536 106.896 232.352 106.896H229.14ZM234.428 99.0267C234.401 99.1509 234.494 99.2692 234.62 99.2692H238.193C238.318 99.2692 238.411 99.1511 238.384 99.0269L236.507 90.5696C236.485 90.4663 236.339 90.4662 236.316 90.5695L234.428 99.0267Z" fill="black"/>
<path d="M248.547 106.896C248.33 106.896 248.155 106.718 248.155 106.499V88.0298C248.155 87.8104 248.33 87.6325 248.547 87.6325H251.636C251.853 87.6325 252.028 87.8104 252.028 88.0298V106.499C252.028 106.718 251.853 106.896 251.636 106.896H248.547Z" fill="black"/>
<path d="M279.506 99.8569C279.723 99.8569 279.899 100.035 279.887 100.254C279.846 100.961 279.698 101.678 279.442 102.404C279.139 103.266 278.674 104.062 278.05 104.794C277.426 105.516 276.637 106.1 275.683 106.544C274.729 106.988 273.607 107.21 272.316 107.21C270.586 107.21 269.109 106.787 267.886 105.943C266.662 105.09 265.725 103.919 265.076 102.43C264.434 100.932 264.114 99.2082 264.114 97.2579C264.114 95.3163 264.434 93.601 265.076 92.1122C265.725 90.6146 266.662 89.4479 267.886 88.6121C269.109 87.7675 270.586 87.3452 272.316 87.3452C273.75 87.3452 274.974 87.6151 275.987 88.1549C277.008 88.6948 277.822 89.3957 278.43 90.2576C279.046 91.1196 279.468 92.0295 279.695 92.9872C279.798 93.4289 279.861 93.8582 279.886 94.2749C279.899 94.494 279.723 94.672 279.506 94.672H276.353C276.137 94.672 275.963 94.4938 275.945 94.2752C275.934 94.1529 275.919 94.0327 275.898 93.9145C275.772 92.9655 275.4 92.1775 274.784 91.5506C274.168 90.915 273.345 90.5972 272.316 90.5972C271.101 90.5972 270.097 91.1414 269.303 92.2297C268.51 93.3094 268.114 94.9854 268.114 97.2579C268.114 99.5391 268.51 101.228 269.303 102.325C270.097 103.414 271.101 103.958 272.316 103.958C273.092 103.958 273.751 103.766 274.291 103.383C274.831 103 275.244 102.499 275.531 101.881C275.765 101.371 275.903 100.828 275.947 100.254C275.963 100.035 276.137 99.8569 276.353 99.8569H279.506Z" fill="black"/>
<path d="M294.766 103.762C294.982 103.762 295.158 103.94 295.158 104.159V106.499C295.158 106.718 294.982 106.896 294.766 106.896H284.195C283.979 106.896 283.803 106.718 283.803 106.499V88.0298C283.803 87.8104 283.979 87.6325 284.195 87.6325H294.766C294.982 87.6325 295.158 87.8104 295.158 88.0298V90.3697C295.158 90.5891 294.982 90.767 294.766 90.767H288.145C287.928 90.767 287.753 90.9449 287.753 91.1643V95.2673C287.753 95.4867 287.928 95.6646 288.145 95.6646H293.361C293.577 95.6646 293.753 95.8424 293.753 96.0618V98.4017C293.753 98.6211 293.577 98.799 293.361 98.799H288.145C287.928 98.799 287.753 98.9769 287.753 99.1963V103.365C287.753 103.584 287.928 103.762 288.145 103.762H294.766Z" fill="black"/>
<path d="M302.914 106.499C302.914 106.718 302.739 106.896 302.522 106.896H299.471C299.254 106.896 299.079 106.718 299.079 106.499V88.0298C299.079 87.8104 299.254 87.6325 299.471 87.6325H304.903C305.069 87.6325 305.217 87.7383 305.273 87.8966L310.584 103.024C310.621 103.129 310.775 103.102 310.775 102.991V88.0298C310.775 87.8104 310.95 87.6325 311.166 87.6325H314.205C314.422 87.6325 314.597 87.8104 314.597 88.0298V106.499C314.597 106.718 314.422 106.896 314.205 106.896H308.734C308.569 106.896 308.421 106.791 308.365 106.633L303.104 91.6863C303.067 91.5813 302.914 91.6082 302.914 91.7196V106.499Z" fill="black"/>
<path d="M331.669 90.3697C331.669 90.5891 331.493 90.767 331.277 90.767H327.466C327.25 90.767 327.074 90.9449 327.074 91.1643V106.499C327.074 106.718 326.899 106.896 326.682 106.896H323.555C323.338 106.896 323.163 106.718 323.163 106.499V91.1643C323.163 90.9449 322.987 90.767 322.771 90.767H318.973C318.756 90.767 318.581 90.5891 318.581 90.3697V88.0298C318.581 87.8104 318.756 87.6325 318.973 87.6325H331.277C331.493 87.6325 331.669 87.8104 331.669 88.0298V90.3697Z" fill="black"/>
<path d="M346.605 103.762C346.822 103.762 346.997 103.94 346.997 104.159V106.499C346.997 106.718 346.822 106.896 346.605 106.896H336.035C335.819 106.896 335.643 106.718 335.643 106.499V88.0298C335.643 87.8104 335.819 87.6325 336.035 87.6325H346.605C346.822 87.6325 346.997 87.8104 346.997 88.0298V90.3697C346.997 90.5891 346.822 90.767 346.605 90.767H339.984C339.768 90.767 339.592 90.9449 339.592 91.1643V95.2673C339.592 95.4867 339.768 95.6646 339.984 95.6646H345.2C345.417 95.6646 345.592 95.8424 345.592 96.0618V98.4017C345.592 98.6211 345.417 98.799 345.2 98.799H339.984C339.768 98.799 339.592 98.9769 339.592 99.1963V103.365C339.592 103.584 339.768 103.762 339.984 103.762H346.605Z" fill="black"/>
<path d="M351.31 106.896C351.094 106.896 350.918 106.718 350.918 106.499V88.0298C350.918 87.8104 351.094 87.6325 351.31 87.6325H358.736C360.694 87.6325 362.154 88.094 363.116 89.0169C364.086 89.9311 364.571 91.2502 364.571 92.9742C364.571 93.9667 364.386 94.8156 364.014 95.5209C363.652 96.2174 363.2 96.7573 362.66 97.1404C362.613 97.1739 362.567 97.2061 362.521 97.237C362.125 97.5015 362.12 97.5785 362.521 97.7741C362.985 98.0005 363.735 98.7729 364.03 99.2692C364.325 99.7655 364.473 100.432 364.473 101.267V104.937C364.473 105.364 364.503 105.76 364.562 106.126C364.623 106.453 364.36 106.896 364.031 106.896H360.81C360.677 106.896 360.55 106.829 360.495 106.707C360.318 106.312 360.23 105.722 360.23 104.937V101.738C360.23 100.98 360.04 100.397 359.66 99.9875C359.28 99.5696 358.673 99.3606 357.837 99.3606H355.158C354.942 99.3606 354.766 99.5385 354.766 99.7579V106.499C354.766 106.718 354.591 106.896 354.374 106.896H351.31ZM357.812 90.7539H355.158C354.942 90.7539 354.766 90.9318 354.766 91.1512V95.8289C354.766 96.0483 354.942 96.2261 355.158 96.2261H357.888C358.647 96.2261 359.276 95.9649 359.774 95.4425C360.28 94.9201 360.533 94.2192 360.533 93.3398C360.533 92.5301 360.293 91.8989 359.812 91.4461C359.339 90.9847 358.673 90.7539 357.812 90.7539Z" fill="black"/>
<path d="M239.096 126.634C239.096 126.883 238.893 127.085 238.643 127.085H233.127C232.877 127.085 232.674 127.287 232.674 127.537V134.47C232.674 134.719 232.471 134.921 232.221 134.921H229.2C228.95 134.921 228.748 134.719 228.748 134.47V116.109C228.748 115.86 228.95 115.657 229.2 115.657H239.77C240.02 115.657 240.223 115.86 240.223 116.109V118.34C240.223 118.59 240.02 118.792 239.77 118.792H233.127C232.877 118.792 232.674 118.994 232.674 119.243V123.499C232.674 123.749 232.877 123.951 233.127 123.951H238.643C238.893 123.951 239.096 124.153 239.096 124.402V126.634Z" fill="black"/>
<path d="M255.097 131.787C255.348 131.787 255.55 131.989 255.55 132.238V134.47C255.55 134.719 255.348 134.921 255.097 134.921H244.642C244.392 134.921 244.189 134.719 244.189 134.47V116.109C244.189 115.86 244.392 115.657 244.642 115.657H255.097C255.348 115.657 255.55 115.86 255.55 116.109V118.34C255.55 118.59 255.348 118.792 255.097 118.792H248.593C248.343 118.792 248.141 118.994 248.141 119.243V123.238C248.141 123.487 248.343 123.689 248.593 123.689H253.692C253.942 123.689 254.144 123.892 254.144 124.141V126.372C254.144 126.622 253.942 126.824 253.692 126.824H248.593C248.343 126.824 248.141 127.026 248.141 127.275V131.335C248.141 131.585 248.343 131.787 248.593 131.787H255.097Z" fill="black"/>
<path d="M270.446 131.787C270.696 131.787 270.899 131.989 270.899 132.238V134.47C270.899 134.719 270.696 134.921 270.446 134.921H259.99C259.74 134.921 259.538 134.719 259.538 134.47V116.109C259.538 115.86 259.74 115.657 259.99 115.657H270.446C270.696 115.657 270.899 115.86 270.899 116.109V118.34C270.899 118.59 270.696 118.792 270.446 118.792H263.942C263.692 118.792 263.489 118.994 263.489 119.243V123.238C263.489 123.487 263.692 123.689 263.942 123.689H269.04C269.29 123.689 269.493 123.892 269.493 124.141V126.372C269.493 126.622 269.29 126.824 269.04 126.824H263.942C263.692 126.824 263.489 127.026 263.489 127.275V131.335C263.489 131.585 263.692 131.787 263.942 131.787H270.446Z" fill="black"/>
<path d="M298.22 127.882C298.47 127.882 298.674 128.084 298.658 128.333C298.613 129.023 298.466 129.721 298.217 130.429C297.913 131.29 297.448 132.087 296.824 132.819C296.199 133.541 295.409 134.125 294.455 134.569C293.501 135.013 292.378 135.235 291.086 135.235C289.355 135.235 287.877 134.812 286.653 133.968C285.428 133.115 284.491 131.944 283.841 130.455C283.199 128.957 282.878 127.233 282.878 125.283C282.878 123.341 283.199 121.626 283.841 120.137C284.491 118.64 285.428 117.473 286.653 116.637C287.877 115.792 289.355 115.37 291.086 115.37C292.521 115.37 293.746 115.64 294.759 116.18C295.781 116.72 296.596 117.421 297.204 118.283C297.82 119.145 298.242 120.054 298.47 121.012C298.568 121.435 298.631 121.846 298.657 122.246C298.674 122.495 298.47 122.697 298.22 122.697H295.187C294.936 122.697 294.736 122.494 294.712 122.246C294.702 122.142 294.688 122.04 294.67 121.939C294.544 120.99 294.172 120.202 293.556 119.576C292.939 118.94 292.116 118.622 291.086 118.622C289.87 118.622 288.865 119.166 288.071 120.255C287.278 121.334 286.881 123.01 286.881 125.283C286.881 127.564 287.278 129.253 288.071 130.35C288.865 131.439 289.87 131.983 291.086 131.983C291.863 131.983 292.521 131.791 293.062 131.408C293.602 131.025 294.016 130.524 294.303 129.906C294.53 129.411 294.667 128.887 294.715 128.333C294.736 128.084 294.936 127.882 295.187 127.882H298.22Z" fill="black"/>
<path d="M315.679 118.34C315.679 118.59 315.476 118.792 315.226 118.792H311.534C311.284 118.792 311.081 118.994 311.081 119.243V134.47C311.081 134.719 310.878 134.921 310.628 134.921H307.62C307.37 134.921 307.167 134.719 307.167 134.47V119.243C307.167 118.994 306.965 118.792 306.715 118.792H303.035C302.785 118.792 302.582 118.59 302.582 118.34V116.109C302.582 115.86 302.785 115.657 303.035 115.657H315.226C315.476 115.657 315.679 115.86 315.679 116.109V118.34Z" fill="black"/>
<path d="M333.724 127.96C333.724 130.398 333.099 132.222 331.849 133.432C330.6 134.634 328.89 135.235 326.72 135.235C324.55 135.235 322.84 134.634 321.59 133.432C320.34 132.222 319.715 130.398 319.715 127.96V116.109C319.715 115.86 319.918 115.657 320.168 115.657H323.202C323.452 115.657 323.655 115.86 323.655 116.109V128.025C323.655 129.384 323.895 130.385 324.377 131.029C324.858 131.665 325.639 131.983 326.72 131.983C327.792 131.983 328.573 131.665 329.063 131.029C329.553 130.385 329.798 129.384 329.798 128.025V116.109C329.798 115.86 330 115.657 330.25 115.657H333.271C333.521 115.657 333.724 115.86 333.724 116.109V127.96Z" fill="black"/>
</svg>
